<?xml version="1.0" encoding="iso-8859-1"?>
<!-- Uploaded to: SVG Repo, www.svgrepo.com, Generator: SVG Repo Mixer Tools -->
<!DOCTYPE svg PUBLIC "-//W3C//DTD SVG 1.1//EN" "http://www.w3.org/Graphics/SVG/1.1/DTD/svg11.dtd">
<svg fill="#000000" version="1.1" id="Capa_1" xmlns="http://www.w3.org/2000/svg" xmlns:xlink="http://www.w3.org/1999/xlink" 
	 width="800px" height="800px" viewBox="0 0 977.428 977.428"
	 xml:space="preserve">
<g>
	<g>
		<path d="M723.953,708.467l0.465-0.003l0.494,0.003l34-0.006v-0.937c55.951-3.062,105.383-13.629,147.299-31.521
			c38.648-16.498,56.869-33.426,60.129-36.651l10.086-9.979v-14.188c0-67.265-25.939-130.509-73.035-178.083
			c-47.158-47.636-110.094-74.046-177.221-74.375l-1.258-0.014c-0.158,0-0.316,0.001-0.48,0.003
			c-0.158-0.002-0.318-0.003-0.479-0.003l-1.26,0.014c-67.127,0.329-130.062,26.739-177.221,74.375
			c-47.098,47.574-73.035,110.818-73.035,178.083v14.188l10.085,9.979c3.261,3.226,21.479,20.153,60.129,36.65
			c41.918,17.893,91.35,28.459,147.301,31.521v0.941h34V708.467z M875.139,615.282c-51.188,20.701-109.975,25.119-150.279,25.181
			l-0.428,0.001l-0.426-0.001c-73.021-0.11-122.027-13.755-150.281-25.181c-14.703-5.944-25.43-11.912-32.58-16.482
			c3.727-43.04,22.092-82.983,52.654-113.855c34.402-34.752,80.338-54.006,129.342-54.216l0.812-0.01
			c0.316,0.004,0.631,0.004,0.957,0l0.812,0.01c49.004,0.21,94.939,19.464,129.342,54.216
			c30.562,30.872,48.93,70.815,52.654,113.855C900.568,603.37,889.842,609.336,875.139,615.282z"/>
		<path d="M724.932,744.794c-75.33,0-147.496-15.446-203.205-43.493l-49.289-24.815v58.207c0,27.343,7.358,53.707,21.869,78.36
			c13.42,22.797,32.355,43.074,56.287,60.271c47.002,33.774,108.916,52.375,174.338,52.375c65.424,0,127.338-18.601,174.34-52.375
			c23.932-17.194,42.867-37.474,56.287-60.271c14.51-24.653,21.869-51.019,21.869-78.36v-58.207l-49.289,24.815
			C872.428,729.348,800.262,744.794,724.932,744.794z M859.592,818.102c-35.535,25.534-83.357,39.597-134.66,39.597
			c-51.301,0-99.123-14.062-134.658-39.597c-12.191-8.762-22.309-18.465-30.166-28.808c50.598,15.328,107.094,23.5,164.824,23.5
			s114.23-8.172,164.826-23.5C881.9,799.637,871.785,809.34,859.592,818.102z"/>
		<path d="M489.932,168.729H298.09l22.601-49h222.241v-68h-265.76l-53.966,117H0v170h25.703l31.169,585.97h376.187l31.169-585.97
			h25.704V168.729z M368.581,856.699H121.351l-27.552-517.97h302.333L368.581,856.699z M68,270.729v-17v-17h353.931v17v17H68z"/>
	</g>
</g>
</svg>