<?xml version="1.0" encoding="iso-8859-1"?>
<!-- Uploaded to: SVG Repo, www.svgrepo.com, Generator: SVG Repo Mixer Tools -->
<svg fill="#000000" height="800px" width="800px" version="1.1" id="Layer_1" xmlns="http://www.w3.org/2000/svg" xmlns:xlink="http://www.w3.org/1999/xlink" 
	 viewBox="0 0 512.001 512.001" xml:space="preserve">
<g>
	<g>
		<path d="M411.792,0.863c-23.456,0-45.663,7.98-63.512,22.651C302.514-11.053,236.924-7.503,195.24,34.181L34.123,195.299
			c-42.438,42.436-44.472,108.328-10.665,153.054c-32.266,39.319-30.054,97.645,6.649,134.348
			c37.01,37.006,96.116,39.038,135.562,5.605c20.73,15.624,45.512,23.446,70.298,23.446c29.933,0,59.867-11.394,82.654-34.182
			l158.89-158.89c41.656-41.655,45.23-107.183,10.739-152.945C542.655,101.641,497.894,0.863,411.792,0.863z M57.738,218.913
			L218.854,57.797c28.839-28.837,73.265-31.646,105.082-10.62c-4.418,4.418-270.812,270.812-276.819,276.819
			C26.054,292.124,28.944,247.708,57.738,218.913z M453.895,295.065l-158.89,158.89c-28.51,28.511-72.682,32.05-105.082,10.623
			c4.962-4.962,271.867-271.867,274.592-274.593C485.944,222.384,482.405,266.555,453.895,295.065z M459.024,148.244
			c-17.467,17.467-293.389,293.39-310.838,310.841c-26.043,26.041-68.42,26.041-94.463,0c-26.043-26.043-26.043-68.42,0-94.464
			c3.125-3.125,309.721-309.719,310.838-310.837c26.053-26.054,68.41-26.053,94.463,0
			C485.078,79.837,485.077,122.19,459.024,148.244z"/>
	</g>
</g>
<g>
	<g>
		<path d="M427.808,76.422c-42.219-14.076-82.429,26.137-68.354,68.351c5.391,16.177-9.951,31.496-26.109,26.109
			c-42.216-14.068-82.429,26.13-68.352,68.352c5.384,16.152-9.923,31.503-26.111,26.109c-42.224-14.073-82.422,26.141-68.352,68.352
			c5.385,16.155-9.923,31.503-26.108,26.112c-42.221-14.079-82.426,26.133-68.354,68.352c2.332,6.998,8.848,11.423,15.84,11.423
			c11.365,0,19.452-11.159,15.844-21.983c-5.385-16.153,9.922-31.501,26.11-26.108c42.221,14.073,82.422-26.139,68.351-68.356
			c-5.391-16.174,9.952-31.496,26.108-26.108c42.221,14.074,82.427-26.132,68.355-68.354c-5.385-16.151,9.923-31.5,26.109-26.107
			c42.221,14.069,82.422-26.137,68.352-68.354c-5.395-16.178,9.958-31.496,26.107-26.107c8.749,2.919,18.206-1.811,21.124-10.559
			C441.283,88.797,436.556,79.34,427.808,76.422z"/>
	</g>
</g>
</svg>